# AST/ASF file generated using VICON BodyLanguage
# -----------------------------------------------
:version 1.10
:name VICON
:units
  mass 1.0
  length 0.45
  angle deg
:documentation
   .ast/.asf automatically generated from VICON data using
   VICON BodyBuilder and BodyLanguage model FoxedUp or BRILLIANT.MOD
:root
   order TX TY TZ RX RY RZ
   axis XYZ
   position 0 0 0  
   orientation 0 0 0 
:bonedata
  begin
     id 1 
     name lhipjoint
     direction 0.606768 -0.715223 0.346827 
     length 2.41543 
     axis 0 0 0  XYZ
  end
  begin
     id 2 
     name lfemur
     direction 0.34202 -0.939693 0  
     length 7.2778  
     axis 0 0 20  XYZ
    dof rx ry rz
    limits (-160.0 20.0)
           (-70.0 70.0)
           (-60.0 70.0)
  end
  begin
     id 3 
     name ltibia
     direction 0.34202 -0.939693 0   
     length 7.61811   
     axis 0 0 20   XYZ
    dof rx
    limits (-10.0 170.0)
  end
  begin
     id 4 
     name lfoot
     direction 0.0823924 -0.226371 0.97055   
     length 2.33618   
     axis -90 7.62852e-016 20   XYZ
    dof rx rz
    limits (-45.0 90.0)
           (-70.0 20.0)
  end
  begin
     id 5 
     name ltoes
     direction 1.53554e-011 -4.21934e-011 1   
     length 1.17015   
     axis -90 7.62852e-016 20   XYZ
    dof rx
    limits (-90.0 20.0)
  end
  begin
     id 6 
     name rhipjoint
     direction -0.6077 -0.714582 0.346516   
     length 2.4176  
     axis 0 0 0  XYZ 
  end
  begin
     id 7 
     name rfemur
     direction -0.34202 -0.939693 0   
     length 7.28127   
     axis 0 0 -20   XYZ
    dof rx ry rz
    limits (-160.0 20.0)
           (-70.0 70.0)
           (-70.0 60.0)
  end
  begin
     id 8 
     name rtibia
     direction -0.34202 -0.939693 0   
     length 7.77648   
     axis 0 0 -20   XYZ
    dof rx
    limits (-10.0 170.0)
 end
 begin
     id 9 
     name rfoot
     direction -0.0809463 -0.222398 0.97159   
     length 2.37533  
     axis -90 -7.62852e-016 -20   XYZ
    dof rx rz
    limits (-45.0 90.0)
           (-20.0 70.0)
  end
  begin
     id 10 
     name rtoes
     direction -1.53568e-011 -4.21714e-011 1   
     length 1.18972   
     axis -90 -7.62852e-016 -20   XYZ
    dof rx
    limits (-90.0 20.0)
  end
  begin
     id 11 
     name lowerback
     direction 0.010968 0.991932 -0.126297   
     length 2.21698   
     axis 0 0 0   XYZ
    dof rx ry rz
    limits (-20.0 45.0)
           (-30.0 30.0)
           (-30.0 30.0)
  end
  begin
     id 12 
     name upperback
     direction 0.0167007 0.997503 -0.0686276   
     length 2.22371   
     axis 0 0 0   XYZ
    dof rx ry rz
    limits (-20.0 45.0)
           (-30.0 30.0)
           (-30.0 30.0)
  end
  begin
     id 13 
     name thorax
     direction 0.0111721 0.999885 -0.0102878   
     length 2.25242   
     axis 0 0 0   XYZ
    dof rx ry rz
    limits (-20.0 45.0)
           (-30.0 30.0)
           (-30.0 30.0)
  end
  begin
     id 14 
     name lowerneck
     direction -0.0120265 0.990428 0.137508   
     length 1.57674   
     axis 0 0 0   XYZ
    dof rx ry rz
    limits (-20.0 45.0)
           (-30.0 30.0)
           (-30.0 30.0)
  end
  begin
     id 15 
     name upperneck
     direction 0.0175669 0.998907 0.0433089   
     length 1.5618   
     axis 0 0 0   XYZ
    dof rx ry rz
    limits (-20.0 45.0)
           (-30.0 30.0)
           (-30.0 30.0)
  end
  begin
     id 16
     name head
     direction 0.00754609 0.99997 0.00185367  
     length 1.60579  
     axis 0 0 0   XYZ
    dof rx ry rz
    limits (-20.0 45.0)
           (-30.0 30.0)
           (-30.0 30.0)
  end
  begin
     id 17 
     name lclavicle
     direction 0.885866 0.429166 -0.176231  
     length 3.44967  
     axis 0 0 0   XYZ
    dof ry rz
    limits (-20.0 10.0)
           (0.0 20.0)
  end
  begin
     id 18 
     name lhumerus
     direction 1 -4.48973e-011 -1.90255e-027   
     length 5.20607   
     axis 180 -30 -90   XYZ
    dof rx ry rz
    limits (-60.0 90.0)
           (-90.0 90.0)
           (-90.0 90.0)
  end
  begin
     id 19
     name lradius
     direction 1 -4.48956e-011 9.87925e-027   
     length 3.39961   
     axis 180 -30 -90   XYZ
    dof rx
    limits (-10.0 170.0)
  end
  begin
     id 20
     name lwrist
     direction 1 -4.48985e-011 1.73247e-026   
     length 1.6998   
     axis -9.60847e-015 90 90   XYZ
    dof ry
    limits (-180.0 0.0)
 end
  begin
     id 21 
     name lhand
     direction 1 -4.48798e-011 3.46119e-026   
     length 0.519693   
     axis -2.21073e-014 90 90   XYZ
    dof rx rz
    limits (-90.0 90.0)
           (-45.0 45.0)
  end
  begin
     id 22 
     name lfingers
     direction 1 -4.48938e-011 6.92797e-026   
     length 0.41899   
     axis -4.42155e-014 90 90   XYZ
    dof rx
    limits (0.0 90.0)
  end
  begin
     id 23
     name lthumb
     direction 0.707107 -6.34952e-011 0.707107   
     length 0.601588   
     axis -90 45 6.0103e-014   XYZ
    dof rx rz
    limits (-45.0 45.0)
           (-45.0 45.0)
  end
  begin
     id 24 
     name rclavicle
     direction -0.866736 0.456792 -0.200276   
     length 3.45032  
     axis 0 0 0   XYZ 
    dof ry rz
    limits (-10.0 20.0)
           (-20.0 0.0)
  end
  begin
     id 25 
     name rhumerus
     direction -1 -4.4897e-011 8.65094e-028  
     length 5.32214   
     axis 180 30 90   XYZ
    dof rx ry rz
    limits (-90.0 60.0)
           (-90.0 90.0)
           (-90.0 90.0)
  end
  begin
     id 26 
     name rradius
     direction -1 -4.48987e-011 1.08427e-026   
     length 3.51208   
     axis 180 30 90   XYZ
    dof rx
    limits (-10.0 170.0)
  end
  begin
     id 27 
     name rwrist
     direction -1 -4.48961e-011 1.73222e-026   
     length 1.75604   
     axis -9.60847e-015 -90 -90   XYZ
    dof ry
    limits (-180.0 0.0)
  end
  begin
     id 28
     name rhand
     direction -1 -4.48895e-011 3.46314e-026   
     length 0.586681   
     axis -2.21073e-014 -90 -90   XYZ
    dof rx rz
    limits (-90.0 90.0)
           (-45.0 45.0)
  end
  begin
     id 29
     name rfingers
     direction -1 -4.48968e-011 6.92916e-026   
     length 0.472997   
     axis -4.42155e-014 -90 -90   XYZ
    dof rx
    limits (0.0 90.0)
  end
  begin
     id 30
     name rthumb
     direction -0.707107 -6.34848e-011 0.707107   
     length 0.679133   
     axis -90 -45 -6.0103e-014   XYZ
    dof rx rz
    limits (-45.0 45.0)
           (-45.0 45.0)
  end
:hierarchy
  begin
    root lhipjoint rhipjoint lowerback
    lhipjoint lfemur
    lfemur ltibia
    ltibia lfoot
    lfoot ltoes
    rhipjoint rfemur
    rfemur rtibia
    rtibia rfoot
    rfoot rtoes
    lowerback upperback
    upperback thorax
    thorax lowerneck lclavicle rclavicle
    lowerneck upperneck
    upperneck head
    lclavicle lhumerus
    lhumerus lradius
    lradius lwrist
    lwrist lhand lthumb
    lhand lfingers
    rclavicle rhumerus
    rhumerus rradius
    rradius rwrist
    rwrist rhand rthumb
    rhand rfingers
  end

#!OML:ASF H:\Dans Jumps\Project 1\Capture day 1\Session 1\subject.ASF
:FULLY-SPECIFIED
:DEGREES
44
root 0.47515 17.5568 -14.1269 6.14272 0.37427 -0.957276
lowerback -0.805198 -0.765312 -0.309488
upperback 4.00121 -1.072 1.49932
thorax 4.61131 -0.576347 1.67008
lowerneck -13.1173 0.523612 -1.9548
upperneck 33.4827 1.03052 0.796328
head 13.4485 0.303816 0.812666
rclavicle 4.42296e-015 7.95139e-016
rhumerus -24.4358 -14.9462 -79.3372
rradius 25.1887
rwrist 30.7433
rhand -18.7437 -26.3845
rfingers 7.12502
rthumb 7.5525 -56.2296
lclavicle 4.42296e-015 7.95139e-016
lhumerus -20.353 -0.146632 88.6431
lradius 19.5192
lwrist 3.94391
lhand -25.3657 -3.30252
lfingers 7.12502
lthumb 1.15838 26.6741
rfemur -14.7499 -2.95833 19.7378
rtibia 23.917
rfoot -13.9059 -2.06145
rtoes 12.4364
lfemur -13.4738 6.70153 -19.2337
ltibia 20.9057
lfoot -11.7259 3.88264
ltoes 4.65245
45
root 0.473135 17.5564 -14.1273 6.1328 0.371524 -0.956826
lowerback -0.785125 -0.758345 -0.308068
upperback 4.0005 -1.06248 1.49603
thorax 4.59874 -0.571436 1.66659
lowerneck -13.1324 0.528244 -1.95176
upperneck 33.4932 1.04062 0.786422
head 13.4563 0.307239 0.809964
rclavicle 5.2181e-015 1.19271e-015
rhumerus -24.414 -14.9618 -79.3368
rradius 25.1798
rwrist 30.7611
rhand -18.7641 -26.3631
rfingers 7.12502
rthumb 7.5329 -56.2089
lclavicle 5.2181e-015 1.19271e-015
lhumerus -20.3593 -0.195823 88.6407
lradius 19.5171
lwrist 3.94972
lhand -25.3623 -3.29914
lfingers 7.12502
lthumb 1.16162 26.6774
rfemur -14.7474 -2.95314 19.7452
rtibia 23.9318
rfoot -13.915 -2.06869
rtoes 12.432
lfemur -13.4672 6.69947 -19.2254
ltibia 20.9129
lfoot -11.7254 3.89183
ltoes 4.63446
46
root 0.471252 17.5558 -14.1275 6.12203 0.370822 -0.958604
lowerback -0.765267 -0.752733 -0.305033
upperback 3.9985 -1.05485 1.49376
thorax 4.58499 -0.567414 1.66316
lowerneck -13.1458 0.532945 -1.94793
upperneck 33.5051 1.05122 0.774565
head 13.4644 0.310698 0.806427
rclavicle -8.15017e-015 -3.57812e-015
rhumerus -24.3949 -14.9813 -79.3384
rradius 25.1704
rwrist 30.7799
rhand -18.7752 -26.3464
rfingers 7.12502
rthumb 7.52213 -56.1927
lclavicle -8.15017e-015 -3.57812e-015
lhumerus -20.3635 -0.224892 88.6271
lradius 19.5018
lwrist 3.94181
lhand -25.359 -3.28976
lfingers 7.12502
lthumb 1.16484 26.6868
rfemur -14.7439 -2.94591 19.7546
rtibia 23.9474
rfoot -13.9251 -2.08009
rtoes 12.4248
lfemur -13.4617 6.69512 -19.2149
ltibia 20.9237
lfoot -11.7268 3.90188
ltoes 4.62307
47
root 0.469516 17.5552 -14.1277 6.11148 0.370675 -0.96189
lowerback -0.745683 -0.747916 -0.300766
upperback 3.99489 -1.04832 1.49205
thorax 4.56974 -0.563893 1.65956
lowerneck -13.1583 0.537038 -1.94306
upperneck 33.5172 1.06152 0.759983
head 13.4724 0.313789 0.801581
rclavicle 1.59028e-014 1.59028e-015
rhumerus -24.3814 -15.0012 -79.3422
rradius 25.1628
rwrist 30.8002
rhand -18.7765 -26.3356
rfingers 7.12502
rthumb 7.5209 -56.1819
lclavicle 1.59028e-014 1.59028e-015
lhumerus -20.3668 -0.235211 88.603
lradius 19.478
lwrist 3.91975
lhand -25.3525 -3.25012
lfingers 7.12502
lthumb 1.17111 26.7264
rfemur -14.7406 -2.93778 19.7651
rtibia 23.9634
rfoot -13.9359 -2.09371
rtoes 12.414
lfemur -13.4589 6.69068 -19.2034
ltibia 20.9389
lfoot -11.7302 3.91211
ltoes 4.60617
48
root 0.467903 17.5544 -14.1278 6.10274 0.370632 -0.967479
lowerback -0.727833 -0.743329 -0.294778
upperback 3.98886 -1.04217 1.49115
thorax 4.55294 -0.560493 1.6558
lowerneck -13.1684 0.541229 -1.93592
upperneck 33.5298 1.07244 0.741987
head 13.4802 0.316973 0.795063
rclavicle -1.19271e-015 6.16232e-015
rhumerus -24.3735 -15.023 -79.3472
rradius 25.1543
rwrist 30.8261
rhand -18.7814 -26.3127
rfingers 7.12502
rthumb 7.51616 -56.1591
lclavicle -1.19271e-015 6.16232e-015
lhumerus -20.3715 -0.233586 88.5701
lradius 19.4477
lwrist 3.88745
lhand -25.3444 -3.19907
lfingers 7.12502
lthumb 1.1789 26.7774
rfemur -14.7398 -2.92739 19.7778
rtibia 23.98
rfoot -13.946 -2.10947
rtoes 12.4059
lfemur -13.4615 6.68691 -19.19
ltibia 20.9599
lfoot -11.736 3.92182
ltoes 4.58838
49
root 0.466468 17.5537 -14.1277 6.09423 0.370528 -0.974717
lowerback -0.713202 -0.739986 -0.288168
upperback 3.98216 -1.03776 1.49173
thorax 4.53737 -0.557972 1.6531
lowerneck -13.169 0.545245 -1.93521
upperneck 33.5366 1.08371 0.72664
head 13.4833 0.31991 0.790648
rclavicle 5.96354e-016 6.75868e-015
rhumerus -24.3697 -15.0334 -79.3574
rradius 25.1536
rwrist 30.8321
rhand -18.7702 -26.3137
rfingers 7.12502
rthumb 7.52693 -56.1598
lclavicle 5.96354e-016 6.75868e-015
lhumerus -20.3778 -0.215444 88.5289
lradius 19.4131
lwrist 3.84258
lhand -25.3393 -3.13683
lfingers 7.12502
lthumb 1.18385 26.8396
rfemur -14.7388 -2.91981 19.7918
rtibia 23.997
rfoot -13.9564 -2.12361
rtoes 12.3901
lfemur -13.4663 6.68421 -19.1756
ltibia 20.9865
lfoot -11.7443 3.93209
ltoes 4.56113
50
root 0.465175 17.5529 -14.1276 6.08875 0.370485 -0.983964
lowerback -0.701264 -0.737072 -0.280037
upperback 3.9732 -1.03399 1.49303
thorax 4.52097 -0.555712 1.65023
lowerneck -13.1655 0.549517 -1.93571
upperneck 33.5421 1.09521 0.712353
head 13.4849 0.322948 0.786856
rclavicle 7.55382e-015 2.38542e-015
rhumerus -24.3708 -15.0385 -79.371
rradius 25.1544
rwrist 30.8335
rhand -18.7609 -26.3175
rfingers 7.12502
rthumb 7.53597 -56.1632
lclavicle 7.55382e-015 2.38542e-015
lhumerus -20.387 -0.184945 88.48
lradius 19.3739
lwrist 3.78729
lhand -25.3428 -3.10494
lfingers 7.12502
lthumb 1.1805 26.8715
rfemur -14.7415 -2.91131 19.8075
rtibia 24.014
rfoot -13.9666 -2.13812
rtoes 12.3806
lfemur -13.4773 6.68456 -19.16
ltibia 21.0187
lfoot -11.7543 3.94056
ltoes 4.52671
51
root 0.464063 17.5521 -14.1274 6.08402 0.369985 -0.995046
lowerback -0.692063 -0.734589 -0.270653
upperback 3.96381 -1.03088 1.49547
thorax 4.5057 -0.553765 1.64778
lowerneck -13.1587 0.554039 -1.93818
upperneck 33.5456 1.10723 0.698926
head 13.4848 0.326097 0.783785
rclavicle 4.67144e-015 -3.97569e-015
rhumerus -24.3768 -15.0387 -79.3865
rradius 25.1571
rwrist 30.8302
rhand -18.7575 -26.3202
rfingers 7.12502
rthumb 7.5392 -56.1658
lclavicle 4.67144e-015 -3.97569e-015
lhumerus -20.3966 -0.141649 88.4245
lradius 19.3288
lwrist 3.72382
lhand -25.3547 -3.09618
lfingers 7.12502
lthumb 1.16902 26.8804
rfemur -14.7442 -2.9031 19.8245
rtibia 24.0304
rfoot -13.9763 -2.15246
rtoes 12.359
lfemur -13.4911 6.68763 -19.1436
ltibia 21.0554
lfoot -11.7662 3.94818
ltoes 4.48523
52
root 0.463178 17.5513 -14.1272 6.08063 0.369741 -1.0061
lowerback -0.686622 -0.732507 -0.260938
upperback 3.95448 -1.02835 1.49808
thorax 4.49266 -0.552105 1.64524
lowerneck -13.1505 0.558264 -1.94278
upperneck 33.5485 1.11859 0.687719
head 13.4842 0.328995 0.781851
rclavicle -1.25731e-014 1.98785e-015
rhumerus -24.3834 -15.0414 -79.4033
rradius 25.1571
rwrist 30.825
rhand -18.7574 -26.3256
rfingers 7.12502
rthumb 7.53931 -56.1713
lclavicle -1.25731e-014 1.98785e-015
lhumerus -20.4061 -0.0893851 88.3635
lradius 19.279
lwrist 3.65518
lhand -25.3812 -3.12105
lfingers 7.12502
lthumb 1.14344 26.8556
rfemur -14.748 -2.89583 19.8406
rtibia 24.0463
rfoot -13.9846 -2.16685
rtoes 12.3284
lfemur -13.508 6.69043 -19.1283
ltibia 21.096
lfoot -11.7792 3.95635
ltoes 4.44652
53
root 0.462532 17.5504 -14.1268 6.07762 0.368001 -1.01859
lowerback -0.68358 -0.729944 -0.248928
upperback 3.94574 -1.02528 1.50093
thorax 4.48154 -0.550107 1.64167
lowerneck -13.1445 0.561629 -1.95009
upperneck 33.553 1.12835 0.679913
head 13.4848 0.331281 0.781526
rclavicle -9.19379e-015 1.07344e-014
rhumerus -24.3894 -15.0543 -79.4188
rradius 25.1509
rwrist 30.8251
rhand -18.7584 -26.3298
rfingers 7.12502
rthumb 7.53833 -56.1755
lclavicle -9.19379e-015 1.07344e-014
lhumerus -20.4153 -0.0311293 88.2979
lradius 19.2276
lwrist 3.589
lhand -25.415 -3.16006
lfingers 7.12502
lthumb 1.11078 26.8168
rfemur -14.7515 -2.88689 19.8569
rtibia 24.061
rfoot -13.9932 -2.18143
rtoes 12.2891
lfemur -13.526 6.69445 -19.1125
ltibia 21.1387
lfoot -11.7931 3.96485
ltoes 4.41072
54
root 0.462088 17.5495 -14.1264 6.07338 0.36532 -1.03189
lowerback -0.681718 -0.727097 -0.235982
upperback 3.93925 -1.0219 1.50397
thorax 4.47341 -0.547949 1.63775
lowerneck -13.1409 0.565518 -1.95677
upperneck 33.5567 1.13851 0.672826
head 13.4855 0.333919 0.781443
rclavicle 5.41688e-015 -3.57812e-015
rhumerus -24.3903 -15.0796 -79.434
rradius 25.1388
rwrist 30.8293
rhand -18.7557 -26.3343
rfingers 7.12502
rthumb 7.54093 -56.1799
lclavicle 5.41688e-015 -3.57812e-015
lhumerus -20.4191 0.0291268 88.2283
lradius 19.1727
lwrist 3.52465
lhand -25.4512 -3.222
lfingers 7.12502
lthumb 1.07578 26.755
rfemur -14.7536 -2.87481 19.873
rtibia 24.0758
rfoot -14.0023 -2.19833
rtoes 12.248
lfemur -13.5431 6.69781 -19.0964
ltibia 21.1818
lfoot -11.8078 3.97537
ltoes 4.38322
